<svg xmlns="http://www.w3.org/2000/svg" viewBox="0 0 120 120" fill="none"><defs><linearGradient id="g" x1="0" y1="0" x2="0" y2="1"><stop offset="0" stop-color="#a6ff9a"/><stop offset="1" stop-color="#46df35"/></linearGradient></defs><circle cx="60" cy="24" r="10" fill="url(#g)"/><rect x="55" y="32" width="10" height="7" rx="3" fill="url(#g)"/><path d="M38 44 Q37 56 48 70 L45 86 Q45 90 50 90 L70 90 Q75 90 75 86 L72 70 Q83 56 82 44 Q60 39 38 44 Z" fill="url(#g)"/><rect x="30" y="46" width="7" height="30" rx="3.5" fill="url(#g)"/><rect x="83" y="46" width="7" height="30" rx="3.5" fill="url(#g)"/><rect x="47" y="88" width="9" height="26" rx="4.5" fill="url(#g)"/><rect x="64" y="88" width="9" height="26" rx="4.5" fill="url(#g)"/></svg>
