<svg xmlns="http://www.w3.org/2000/svg" viewBox="0 0 120 120" fill="none"><defs><linearGradient id="g" x1="0" y1="0" x2="0" y2="1"><stop offset="0" stop-color="#a6ff9a"/><stop offset="1" stop-color="#46df35"/></linearGradient></defs><circle cx="60" cy="24" r="10" fill="url(#g)"/><rect x="55" y="32" width="10" height="7" rx="3" fill="url(#g)"/><path d="M44 44 Q43 56 49 70 L47 86 Q47 90 52 90 L68 90 Q73 90 73 86 L71 70 Q77 56 76 44 Q60 39 44 44 Z" fill="url(#g)"/><rect x="38" y="46" width="5" height="30" rx="2.5" fill="url(#g)"/><rect x="77" y="46" width="5" height="30" rx="2.5" fill="url(#g)"/><rect x="49" y="88" width="7" height="26" rx="3.5" fill="url(#g)"/><rect x="64" y="88" width="7" height="26" rx="3.5" fill="url(#g)"/></svg>
