<svg xmlns="http://www.w3.org/2000/svg" viewBox="0 0 120 120" fill="none"><defs><linearGradient id="g" x1="0" y1="0" x2="0" y2="1"><stop offset="0" stop-color="#a6ff9a"/><stop offset="1" stop-color="#46df35"/></linearGradient></defs><circle cx="60" cy="24" r="10" fill="url(#g)"/><rect x="55" y="32" width="10" height="7" rx="3" fill="url(#g)"/><path d="M47 44 Q46 56 51 70 L49 86 Q49 90 54 90 L66 90 Q71 90 71 86 L69 70 Q74 56 73 44 Q60 39 47 44 Z" fill="url(#g)"/><rect x="42" y="46" width="4" height="30" rx="2" fill="url(#g)"/><rect x="74" y="46" width="4" height="30" rx="2" fill="url(#g)"/><rect x="51" y="88" width="6" height="26" rx="3" fill="url(#g)"/><rect x="63" y="88" width="6" height="26" rx="3" fill="url(#g)"/></svg>
