<svg xmlns="http://www.w3.org/2000/svg" viewBox="0 0 120 120" fill="none"><defs><linearGradient id="g" x1="0" y1="0" x2="0" y2="1"><stop offset="0" stop-color="#a6ff9a"/><stop offset="1" stop-color="#46df35"/></linearGradient></defs><circle cx="60" cy="24" r="10" fill="url(#g)"/><rect x="55" y="32" width="10" height="7" rx="3" fill="url(#g)"/><path d="M42 44 Q41 56 45 70 L43 86 Q43 90 48 90 L72 90 Q77 90 77 86 L75 70 Q79 56 78 44 Q60 39 42 44 Z" fill="url(#g)"/><rect x="35" y="46" width="6" height="30" rx="3" fill="url(#g)"/><rect x="79" y="46" width="6" height="30" rx="3" fill="url(#g)"/><rect x="45" y="88" width="8" height="26" rx="4" fill="url(#g)"/><rect x="67" y="88" width="8" height="26" rx="4" fill="url(#g)"/></svg>
