<svg xmlns="http://www.w3.org/2000/svg" viewBox="0 0 120 120" fill="none"><defs><linearGradient id="g" x1="0" y1="0" x2="0" y2="1"><stop offset="0" stop-color="#a6ff9a"/><stop offset="1" stop-color="#46df35"/></linearGradient></defs><circle cx="60" cy="24" r="10" fill="url(#g)"/><rect x="55" y="32" width="10" height="7" rx="3" fill="url(#g)"/><path d="M40 44 Q39 56 37 70 L38 86 Q38 90 43 90 L77 90 Q82 90 82 86 L83 70 Q81 56 80 44 Q60 39 40 44 Z" fill="url(#g)"/><rect x="32" y="46" width="7" height="30" rx="3.5" fill="url(#g)"/><rect x="81" y="46" width="7" height="30" rx="3.5" fill="url(#g)"/><rect x="40" y="88" width="9" height="26" rx="4.5" fill="url(#g)"/><rect x="71" y="88" width="9" height="26" rx="4.5" fill="url(#g)"/></svg>
